<?xml version="1.0" encoding="UTF-8"?>
<svg width="680px" height="680px" viewBox="0 0 680 680" version="1.1" xmlns="http://www.w3.org/2000/svg" xmlns:xlink="http://www.w3.org/1999/xlink">
    <!-- Generator: Sketch 47.1 (45422) - http://www.bohemiancoding.com/sketch -->
    <title>Artboard Copy 3</title>
    <desc>Created with Sketch.</desc>
    <defs></defs>
    <g id="Page-1" stroke="none" stroke-width="1" fill="none" fill-rule="evenodd">
        <g id="Artboard-Copy-3" fill-rule="nonzero" fill="#6198BE">
            <g id="Group-3" transform="translate(10.000000, 7.000000)">
                <g id="Group-2" transform="translate(37.000000, 0.000000)">
                    <path d="M51.85673,289.062944 C68.2682282,170.652271 171.057866,86 295.412378,86 L295.412378,35 C144.110509,35 19.2411992,140.351946 0.83682996,285.274023 L24.5,261 L51.85673,289.062944 Z M358.5,62 L295.412378,123.5 L295.412378,0.5 L358.5,62 Z" id="Combined-Shape"></path>
                    <path d="M354.85673,361.062944 C371.268228,242.652271 474.057866,158 598.412378,158 L598.412378,107 C447.110509,107 322.241199,212.351946 303.83683,357.274023 L327.5,333 L354.85673,361.062944 Z M661.5,134 L598.412378,195.5 L598.412378,72.5 L661.5,134 Z" id="Combined-Shape-Copy" transform="translate(482.668414, 216.781472) rotate(-270.000000) translate(-482.668414, -216.781472) "></path>
                </g>
                <g id="Group" transform="translate(313.500000, 466.000000) rotate(-180.000000) translate(-313.500000, -466.000000) translate(0.000000, 268.000000)">
                    <path d="M51.85673,289.062944 C68.2682282,170.652271 171.057866,86 295.412378,86 L295.412378,35 C144.110509,35 19.2411992,140.351946 0.83682996,285.274023 L24.5,261 L51.85673,289.062944 Z M358.5,62 L295.412378,123.5 L295.412378,0.5 L358.5,62 Z" id="Combined-Shape-Copy-3"></path>
                    <path d="M354.85673,361.062944 C371.268228,242.652271 474.057866,158 598.412378,158 L598.412378,107 C447.110509,107 322.241199,212.351946 303.83683,357.274023 L327.5,333 L354.85673,361.062944 Z M661.5,134 L598.412378,195.5 L598.412378,72.5 L661.5,134 Z" id="Combined-Shape-Copy-2" transform="translate(482.668414, 216.781472) rotate(-270.000000) translate(-482.668414, -216.781472) "></path>
                </g>
            </g>
            <g id="logo" transform="translate(342.060967, 339.060967) rotate(-45.000000) translate(-342.060967, -339.060967) translate(292.060967, 99.060967)">
                <g id="g3017" transform="translate(49.861986, 239.752759) rotate(90.000000) translate(-49.861986, -239.752759) translate(-189.638014, 190.252759)">
                    <path d="M385.001115,9.43176026 C400.148926,3.67890119 417.105835,-0.204536889 434.157248,1.02452995 C450.776639,2.02637435 466.923504,8.44024416 476.92754,18.7065672 C479.033653,20.6689428 478.993151,23.9843248 476.279505,25.616195 C473.471355,27.6818536 468.584093,26.989858 466.653489,24.4904111 C458.134533,15.8559584 444.201786,10.8157515 430.174535,10.4955744 C418.226395,10.2373671 406.453764,12.7781271 395.612683,16.4756559 C374.524553,23.8397287 356.244574,35.0769112 339.530678,47.2023269 C336.371509,45.0127288 333.252842,42.7921459 330.107173,40.5922195 C346.564555,28.4977887 364.561019,17.3638891 385.001115,9.43176026 L385.001115,9.43176026 Z" id="path6"></path>
                    <path d="M7.60680359,9.42499191 C25.8057787,2.66283539 47.3529332,3.85008424 66.0244336,8.86750114 C89.0161655,14.8656888 108.308699,26.4800798 127.18271,37.8054015 C123.699524,39.880506 120.216337,41.9452866 116.692648,43.9790955 C96.9410901,31.9827201 75.9474653,19.8005145 50.7416148,15.701925 C36.8088682,13.4513141 21.2965371,13.9262137 9.02437955,19.965697 C4.55564011,22.0201537 -1.49268395,17.9112402 0.356915146,14.2565786 C1.22096144,11.6652789 4.86615675,10.6122408 7.60680359,9.42499191 Z" id="path8"></path>
                    <path d="M212.644986,12.0491468 C235.150692,9.66755968 258.007417,14.4510893 277.488961,22.8782437 C296.335971,30.8066897 312.604342,41.656142 328.130174,52.8312815 C344.830569,64.1997977 363.097048,74.7439184 384.198678,80.9828624 C397.537393,84.8605748 412.590699,86.8045198 426.523446,83.5069376 C436.338472,81.3594382 444.857428,76.5657308 450.932754,70.4183863 C455.441995,66.5915626 464.352473,71.4056254 461.031295,75.8431125 C454.942469,83.201606 444.978935,88.4024222 434.421369,91.5778717 C417.315953,96.595489 397.996418,95.2113187 381.093512,90.4379668 C356.778709,83.568004 335.879589,71.3649145 316.992077,58.1949414 C301.142228,46.7348256 284.18532,35.7937738 264.339256,28.4658135 C249.798977,23.0919759 233.4226,19.896171 217.167729,21.2192749 C201.911911,22.3591799 187.493139,26.9798659 174.424439,32.8524119 C149.758617,44.0173737 128.575982,58.8870265 104.855211,71.0799383 C85.4276701,80.6978862 62.8814621,88.300645 39.1741919,87.6085599 C28.6031255,87.3235836 17.6675395,85.4712381 8.87856863,80.8709075 C4.5853386,78.8658961 5.81390443,73.21726 10.7686699,72.3826868 C15.007897,71.5684689 18.0995627,74.2960986 21.7717594,75.3036932 C31.1412615,78.1941664 41.6043221,78.7539412 51.5543552,77.583503 C69.7128281,75.6090248 86.3727208,69.0647492 101.29102,61.2482582 C123.067687,49.5438771 143.129762,36.0278614 166.013488,25.4837407 C180.297253,18.9496428 195.971593,13.7386488 212.644986,12.0491468 L212.644986,12.0491468 Z" id="path10"></path>
                    <path d="M38.8719653,23.1129959 C42.7736743,21.17135 48.1874644,24.0381331 47.5394297,27.9442679 C47.4989275,43.6373357 47.7014384,59.3532464 47.4449246,75.0463142 C47.1479087,80.0831722 37.5758959,80.6770874 36.1718206,75.8229726 C35.9288076,59.9014758 36.1853213,43.9685576 36.0503141,28.0470609 C35.7262967,26.0711506 36.8738582,24.1409261 38.8719653,23.1129959 L38.8719653,23.1129959 Z" id="path12"></path>
                    <path d="M408.638522,22.9809158 C412.270216,21.4628155 417.049472,23.8141588 417.035972,27.306931 C417.278985,42.3966199 417.035972,57.5091373 417.143978,72.5988262 C417.467995,75.361084 415.739902,78.8652704 412.067706,79.1049705 C408.395509,79.7898277 404.858319,76.8449414 405.330845,73.7516693 C405.303843,58.5021804 405.303843,43.2412772 405.330845,27.9917883 C405.222839,25.9714593 406.262394,23.7342588 408.638522,22.9809158 Z" id="path14"></path>
                    <path d="M227.214706,24.6645415 C230.994908,23.2445538 235.625656,26.2448504 235.031625,29.714659 C234.977622,47.6591811 235.180132,65.6151547 234.923619,83.5596767 C234.046072,88.4952791 224.514561,88.4609246 223.691017,83.5596767 C223.407502,65.6266062 223.650515,47.6820841 223.56951,29.7375621 C223.285995,27.5846775 224.69007,25.3058262 227.214706,24.6645415 L227.214706,24.6645415 Z" id="path16"></path>
                    <path d="M207.511263,26.2934506 C210.724436,25.3910837 214.869158,27.3214635 214.950162,30.3255457 C214.977163,46.385392 214.977163,62.4566606 214.950162,78.5165069 C214.815155,83.6337268 204.932625,84.3076463 203.663557,79.3046501 C203.245035,63.7930774 203.636556,48.2472376 203.461046,32.7242426 C203.177531,30.1313655 204.149583,27.024482 207.511263,26.2934506 Z" id="path18"></path>
                    <path d="M247.88621,26.5270214 C251.801419,24.8833734 256.783186,27.8967281 256.121651,31.5949361 C256.081149,47.1639351 256.256658,62.7443484 256.040646,78.3247616 C256.067648,82.0115554 250.559353,83.8720736 247.14367,82.0343838 C244.740541,80.8587189 244.227514,78.3361758 244.308518,76.1903021 C244.335519,61.648583 244.335519,47.106864 244.308518,32.565145 C244.119508,30.2138152 245.132062,27.5086445 247.88621,26.5270214 Z" id="path20"></path>
                    <path d="M388.034663,29.4189116 C391.909371,27.6884287 397.107149,30.0522909 396.810133,33.8638774 C396.783132,44.3711886 396.958641,54.9011204 396.715628,65.4084316 C396.405112,68.8128456 391.274837,70.6111906 388.007662,68.8354663 C385.496527,67.8514662 384.997,65.3518798 385.010501,63.2820866 C384.997,53.8266376 385.010501,44.3824989 385.010501,34.9270499 C384.848493,32.834636 385.699038,30.4707737 388.034663,29.4189116 Z" id="path22"></path>
                    <path d="M60.3133319,31.0202944 C63.4725011,28.4168819 69.8043404,30.0581637 70.0338527,33.9066865 C70.1553592,44.7391462 70.1958614,55.5829251 70.0068513,66.4153848 C69.480323,71.2486766 60.5698456,71.7806783 58.8147516,67.3096004 C58.3827284,57.3034411 58.8012509,47.2746435 58.6122407,37.2684843 C58.7067458,35.1291584 58.112714,32.5823418 60.3133319,31.0202944 Z" id="path24"></path>
                    <path d="M186.932645,35.403784 C190.550839,33.1868312 196.207642,35.8675343 195.924127,39.6001588 C196.099636,49.4859583 195.924127,59.3604468 196.005131,69.2462462 C196.113137,71.3274672 195.384098,73.6801517 192.980969,74.7207622 C189.187266,76.7567392 183.800477,73.8724384 184.191998,70.1737469 C184.137996,60.3784353 184.219,50.5831237 184.164997,40.7878121 C184.043491,38.785768 184.705026,36.4783274 186.932645,35.403784 L186.932645,35.403784 Z" id="path26"></path>
                    <path d="M269.234358,35.300952 C272.623039,33.3669426 277.901822,35.7307318 277.86132,39.1915907 C278.212339,49.1670073 277.901822,59.165044 278.009828,69.1404607 C278.279842,71.8096198 276.511248,75.0555887 272.960557,75.2930986 C269.450369,75.9038384 265.980683,73.2912293 266.210196,70.3393203 C266.156193,60.4543836 266.237197,50.5807569 266.169694,40.7071302 C265.980683,38.6487108 266.817728,36.2283717 269.234358,35.300952 Z" id="path28"></path>
                    <path d="M82.9108193,38.1789721 C86.4345081,35.5658906 92.9148553,37.9667988 92.4693314,41.96459 C92.3208234,48.2851203 92.8743531,54.6503186 92.1723155,60.9485149 C90.7952417,65.2031475 82.6003026,65.1249784 81.1152231,60.9373479 C80.8047064,55.3761746 81.1287238,49.8038343 80.9802158,44.242661 C81.0882216,42.1767633 80.5076905,39.5413478 82.9108193,38.1789721 L82.9108193,38.1789721 Z" id="path30"></path>
                    <path d="M367.477989,37.7658778 C371.123185,35.7667728 376.752986,38.3354552 376.307462,42.0097878 C376.280461,48.2081301 376.523474,54.4176406 376.185956,60.6048148 C375.105898,65.1390976 366.357429,65.3177886 364.953354,60.8505148 C364.710341,54.562827 364.912852,48.2751392 364.87235,41.9874515 C364.669839,40.3122238 365.749897,38.6369962 367.477989,37.7658778 L367.477989,37.7658778 Z" id="path32"></path>
                    <path d="M136.692411,66.7019357 C140.175597,64.6389931 143.658784,62.586263 147.168972,60.5539581 C170.849241,74.3511636 197.135149,88.8530377 228.308319,89.2309034 C259.265478,89.1696279 286.253424,75.382635 308.732129,60.5539581 C311.904799,62.708814 315.090969,64.8738826 318.115131,67.1615021 C295.366412,82.2761314 268.607979,95.9814237 237.718324,98.3813817 C212.795988,100.454537 188.319177,93.4078517 167.622568,83.3893035 C156.83549,78.3442853 146.76395,72.5026853 136.692411,66.7019357 Z" id="path34"></path>
                </g>
            </g>
        </g>
    </g>
</svg>